<svg xmlns="http://www.w3.org/2000/svg" xmlns:xlink="http://www.w3.org/1999/xlink" xml:space="preserve" version="1.1" style="shape-rendering:geometricPrecision;text-rendering:geometricPrecision;image-rendering:optimizeQuality;" viewBox="0 0 50000 62500" x="0px" y="0px" fill-rule="evenodd" clip-rule="evenodd"><defs><style type="text/css">
   
    .fil0 {fill:white;fill-rule:nonzero}
   
  </style></defs><g><path class="fil0" d="M48046.24 24497.17c328.84,0 328.84,500 0,500 -1611.13,0 -4041.33,-713.6 -5422.29,-1600.41 -250.31,-160.73 -486.03,-331.7 -709.69,-511.68 200.8,405.18 376.57,836.18 510.32,1297.97 91.2,314.72 -387.32,453.38 -478.52,138.68 -175.08,-604.49 -429.38,-1156.33 -718.22,-1666.32 -658.94,-1163.45 -1540.49,-2213.19 -2299.67,-3313.86 -1764.13,-2557.66 -2851.47,-3599.75 -4003.07,-4401.43 -2644.55,-1840.95 -4449.49,-2819.26 -6805.74,-5170.52 -1014.36,-1012.22 -2708.39,-2511.77 -4164.26,-2656.69 -1542.41,-153.51 -2334.92,1501.69 -1816.56,2832.17 434.2,1114.42 1596.97,2136.81 2545.88,2913.35 294.97,209.78 582.28,338.55 858.21,404.22 380.2,90.49 740.18,61.09 1069.4,-40.54 188.07,-57.81 275.95,228.14 87.9,285.94 -351.07,108.37 -732.74,145.06 -1135.31,66.15 902.08,729.27 1895.75,1431.48 2723.43,2230.33 611.3,488.44 1310.02,713.96 2077.69,476.98 188.07,-57.81 275.95,228.14 87.9,285.94 -498.79,153.97 -1001.15,144.5 -1490.39,-32.76 185.16,229.31 350.7,466.52 496.54,718.15 426.9,736.57 679.73,1586.68 753.79,2708.28 20.56,327.56 -477.49,358.8 -498.04,31.26 -40.5,-613.5 -137.53,-1137.07 -290.19,-1601 4.36,92.41 3.86,184.56 -1.84,276.21 -74.38,1195.36 -983.02,1904.42 -2032.72,2301.63 -1545.81,584.94 -4405.69,788.78 -7094.95,807.7 -1831.69,12.88 -3785.17,-23.28 -5608.46,-237.86 270.12,438.67 255.52,1125.09 175.93,1612.01 -31.58,194.21 -326.91,146.21 -295.32,-48.04 68.38,-418.3 126.87,-1469.13 -408.55,-1630.85 -1253.64,-169.22 -2534.09,-394.21 -3759.76,-703.67 269.11,539.41 156.53,1374.57 -33.57,1940.6 -62.43,186.52 -346.03,91.6 -283.6,-94.92 175.24,-521.82 370.79,-1729.93 -228.68,-1989.72 -1254.71,-331 -2493.52,-581.32 -3496.92,-543 -1740.47,66.47 -2682.31,1744.21 -1482.73,3009.94 1024.25,1080.79 3236.08,1442.38 4660.48,1633.14 1591.57,213.16 3113.46,645.26 4750.06,805.38 634.35,62.06 3442.55,506.01 4110.59,977.57 -34.26,-248.69 -96.42,-477.9 -187.89,-658.5 -88.63,-175.71 178.55,-310.48 267.18,-134.76 348.53,688.19 338.95,2019.65 -57.58,2685.29 -100.85,168.58 -357.48,15.05 -256.64,-153.52 126.2,-211.85 209.13,-521.09 245.56,-858.66 -1320.05,402.15 -4362.71,620.53 -5501.83,570.88 -214.53,-9.35 -274.95,4.1 -201.59,352.02 67.81,321.6 26.69,838.46 -1.82,1171.36 -16.17,196.52 -314.99,171.94 -298.82,-24.6 29.65,-346.24 81.27,-829.84 -0.56,-1163.9 -85.85,-350.53 -314.81,-382.51 -771.57,-418.74 -1186.82,-94.14 -2389.81,-214.81 -3559.26,-438.81 225.73,391.69 215.18,941.75 164.85,1374.58 -22.34,195.75 -320,161.8 -297.66,-33.98 49.62,-426.84 83.56,-1157.25 -344.76,-1415.53 -267.44,-161.27 -983.51,-327.3 -1316.73,-443.91 -1144.71,-400.64 -2340.74,-819.24 -3284.57,-383.46 -1145.56,528.88 -1373.4,1952.81 -472.96,2803.15 647.73,611.67 3728.58,1510.44 4758.24,1779.41 3247.44,848.28 4989.35,1246.32 8480.29,894.83 551.23,-55.47 1215.41,-15.45 1786.23,-31.32 273.52,-7.6 502.48,70.57 677.22,195.35 3.16,-157.36 30.42,-265.81 61.78,-353.45 117.25,-327.52 412.08,-337.78 284.52,104.65 -130.07,450.87 119.76,991.62 85.53,1491.74 -14.59,213.26 -65.12,409.89 -150.88,600.72 -80.15,179.56 -353.2,57.7 -273.04,-121.88 64.51,-143.55 104.98,-291.32 120.98,-450.02 -163.72,131.73 -404.82,208.95 -730.23,187.18 -1013.18,-67.79 -2154.09,11.31 -3290.04,90.06 -371.69,25.77 -742.85,51.48 -1109.64,72.11 277.43,336.31 270.26,896.14 253.78,1306.91 -7.69,196.5 -306.51,184.83 -298.82,-11.72 17.64,-439.36 56.21,-1238.31 -554.41,-1266.68 -1015.77,37.99 -1980,13.5 -2806.44,-186.47 31.94,61.22 59.05,125.56 81.9,192.18 153,446.19 105.84,994.49 40.03,1360.38 -34.68,193.44 -328.82,140.72 -294.14,-52.74 59.5,-330.81 103.34,-822.99 -29.49,-1210.38 -134.3,-391.64 -310.53,-448.37 -641.06,-566.26 -1209.71,-431.55 -2869.91,-784.36 -4128.33,-483.43 -1774.12,424.23 -1526.64,2334.64 -131.31,3192.24 1889.33,1161.22 6202.52,1433.51 8422.72,1366.48 1319.17,-39.83 2553.98,-186.19 3625.01,-436.28 618.58,-144.42 1228.64,-355.24 1872.73,-201.63 355.01,84.67 617.04,280.39 808.02,615.15 97.11,171.12 -163.06,318.75 -260.16,147.66 -51.1,-89.57 -108.74,-166.15 -173.62,-230.6 -224.03,-222.61 -109.56,-88.84 -196.83,86.6 -40.6,81.63 -107.01,163.62 -201.11,243.75 -303.62,258.56 -995.83,573.5 -2190.57,850.8 294.67,226.19 483.51,623.1 575,974.96 49.33,190.37 -240.13,265.37 -289.46,75 -99.34,-382.03 -374.45,-971.44 -851.87,-929.11 -1184.83,232.6 -2378.29,415.78 -3566.56,628.95 66.09,44.07 128.16,94.94 186.13,151.05 305.93,296.11 493.92,743.42 554.4,1082.34 33.9,194.26 -261.43,245.76 -295.32,51.56 -51.73,-289.88 -210.57,-670.58 -467.68,-919.44 -333.88,-323.17 -597.35,-252.84 -976.72,-175.88 -567.77,115.18 -1107.72,240.31 -1606.21,384.52 -2698.49,780.66 -2062.33,3511.93 617.83,2995.82 1913.73,-368.51 3801.91,-853.15 5725.16,-1171.82 3384.66,-560.83 6292.39,-498.58 9114.55,-438.17 5961.95,127.63 8081.25,-795.47 13364.05,-1555.56 608.21,-88.28 1213.17,-191.71 1720.42,-433.34 495.65,-236.1 908.09,-612.67 1154.15,-1257.66 116.9,-307.01 583.7,-129.27 466.8,177.74 -240.52,630.48 -612.18,1050.34 -1062.29,1340.31 617.89,-6.16 1224.3,19.75 1820.09,70.92 1957.64,168.14 3796.69,608.09 5551.87,1077.6 566.19,119.5 472.45,637.05 -95.83,491.23 -1780.68,-479.34 -3518.2,-900.83 -5497.06,-1070.79 -1264.36,-108.59 -2576.65,-100.73 -3945.13,92.12 -5322.62,750.06 -7468.63,1694.3 -13486.83,1565.47 -2798.4,-59.9 -5681.65,-121.63 -9024.71,432.31 -1917.34,317.69 -3802.81,802.34 -5711.48,1169.88 -3297.25,634.96 -4162.2,-3006.46 -850.27,-3964.58 793.78,-229.63 1676.25,-410.07 2604.35,-577.43 1205.28,-217.33 2415.75,-402.63 3617.78,-638.8 1025.1,-201.4 1714.58,-422.04 2134.64,-622.51 552.99,-263.93 520.09,-338.65 -97.94,-249.68 -136.73,19.69 -291.93,52.08 -463.3,98.9 -1206.68,329.71 -2643.24,520.02 -4188.35,566.68 -2336.89,70.55 -6705.96,-214.33 -8698.12,-1438.74 -1777.89,-1092.75 -1936.74,-3572.87 277.79,-4102.4 1543.57,-369.1 2887.35,57.42 4290.8,492.09 1946.67,602.83 3257.86,480.4 5277.86,340.35 1152.22,-79.88 2230.39,-165.12 3277.36,-95.06 708.95,50.53 577.19,-669.35 -16.32,-653.21 -557.9,15.52 -1213.45,-24.72 -1751.09,29.38 -3574.11,359.86 -5318.18,-37.11 -8654.11,-908.51 -1151.71,-300.86 -4225.16,-1190.41 -4975.04,-1898.55 -1166.13,-1101.21 -850.49,-2957.82 626.4,-3638.49 1095.18,-504.78 2393.47,-50.4 3636.99,384.82 509.93,178.46 1010.06,353.51 1470.23,449.09 1213.05,251.96 2519.57,390.18 3757.25,493.39 425.91,35.51 850.63,47.3 1256.08,71.1 870.62,51.11 3929.41,-89.98 4966.55,-405.59 333.31,-101.43 347.99,-102.42 20.76,-244.61 -859.15,-373.35 -3309,-747.73 -3673.28,-783.37 -1647.38,-161.17 -3170.34,-593.45 -4767.64,-807.34 -1567.79,-209.97 -3829.9,-593.85 -4957.34,-1783.52 -1487.3,-1569.34 -376,-3767.64 1826.47,-3851.74 1681.43,-87.45 5118.32,996.91 8288.66,1449.44 1816.92,259.34 3730.25,253.87 5562.14,244.98 2666.34,-12.93 5518.69,-205.48 7024.88,-775.43 852.64,-322.64 1649.21,-880.02 1710.46,-1864.13 52.7,-846.73 -458.86,-1799.22 -997.43,-2420.29 -932.94,-1075.79 -2434.8,-2022.95 -3572.29,-2969.75 -1117.69,-930.29 -2221.24,-1988.82 -2667.8,-3036.08 -721.17,-1691.3 374.36,-3788.61 2315.97,-3595.36 1599.5,159.23 3355.14,1689.76 4467,2799.27 2267.55,2262.75 4031.58,3291.85 6629.59,5050.66 1237.88,838.04 2361.78,1871.74 4237.82,4591.61 711.53,1031.58 1429.2,2078.56 2338.7,2948.72 310.23,296.8 643.46,573.98 1008.99,826.74 1346.02,930.74 3748.68,1663.36 5360.22,1663.36zm-3994.32 3288.72c94.8,-172.64 357.3,-28.5 262.5,144.14 -980.14,1772.67 -15.85,4162.17 -344.93,6221.99 -30.82,194.21 -326.14,147.37 -295.32,-46.88 339.75,-2126.63 -676.68,-4412.2 377.75,-6319.25zm-1381.73 7411.49c-48.54,191.12 -339.16,117.33 -290.62,-73.82 577.65,-2270.66 -485.49,-5443.07 379.24,-7054.46 93.24,-173.4 356.94,-31.64 263.68,141.8 -786.51,1465.63 211.58,4769.89 -352.3,6986.48zm-17136.91 -10707.61c-79.38,-180.34 194.83,-301.05 274.22,-120.7 1806.34,4087.23 5456.63,6106.79 9818.25,6313.86 196.52,9.24 182.48,308.06 -14.06,298.82 -4476.65,-212.54 -8225.44,-2299.21 -10078.41,-6491.98zm6320.56 10115.43c188.03,59.32 97.86,345.28 -90.24,285.94 -3241.76,-1022.8 -6365.74,-4746.26 -7164.57,-8018.85 -46.24,-191.17 244.4,-261.43 290.62,-70.32 774.46,3172.74 3821.08,6811.57 6964.19,7803.23zm-5187.96 4252.89c23.11,195.8 -274.56,230.89 -297.66,35.16 -682.24,-5606.6 -3799.08,-7533.37 -4418.55,-12752.92 -23.11,-195.8 274.56,-230.89 297.66,-35.16 613.5,5169.44 3731.66,7108.13 4418.55,12752.92z"/></g><text x="0" y="50015" fill="#000000" font-size="5px" font-weight="bold" font-family="'Helvetica Neue', Helvetica, Arial-Unicode, Arial, Sans-serif">Created by Oleksandr Panasovskyi</text><text x="0" y="50020" fill="#000000" font-size="5px" font-weight="bold" font-family="'Helvetica Neue', Helvetica, Arial-Unicode, Arial, Sans-serif">from the Noun Project</text></svg>